<svg xmlns="http://www.w3.org/2000/svg" width="2000" height="2000" viewBox="0 0 1500 1500" preserveAspectRatio="xMidYMid meet" role="img" aria-label="Curved right steering arrow">
  <path fill="#0f3a67" d="M1168.8 737.7C1134.6 1.9 69.6 1.9 35.4 737.7c-35.2 756.9 1168.5 756.9 1133.4 0Z"/>
  <path fill="#1e87c9" d="M1094.7 763.1C1064.2 107.3 115 107.3 84.6 763.1c-31.4 674.6 1041.5 674.6 1010.1 0Z"/>
  <path fill="#38b7fa" d="M149.9 520C112.6 587.3 89 668.3 84.6 763.1c-29.8 641.4 938.6 672.9 1006.9 94.5-84.7-477.7-636.6-590.2-941.6-337.7Z"/>
  <path fill="#fcf8f9" d="M288.2 996.4c57.7 99 2.7 182.5-89.1 50C106.5 912.5 203.6 851.2 288.2 996.4Zm84.2 173.7c20.1-5.8 31-19.9 25.2-40.1-5.8-20.1-26.9-31.8-47-25.9-20.1 5.8-27.6 24.9-21.8 45 5.8 20.1 23.5 26.8 43.6 21Z"/>
  <!-- Curved right arrow: only the former straight-arrow artwork changes. -->
  <path fill="#16273d" d="M300 918c0-225 145-385 358-385h140V445c0-39 46-59 75-32l249 234c25 23 25 62 0 85L873 968c-29 27-75 7-75-32v-89H658c-103 0-166 60-166 159 0 42-35 75-77 75-64 0-115-63-115-163Zm154-35c30-78 101-121 204-121h180c30 0 54-24 54-54V572l152 143-152 143V722c0-30-24-54-54-54H658c-120 0-204 63-204 215Z"/>
  <path fill="#0f3a67" d="M340 904c0-202 130-342 326-342h152v-80c0-15 18-23 30-12l235 221c10 9 10 25 0 34L848 947c-12 11-30 3-30-12v-80H666c-130 0-210 81-210 202 0 18-14 31-31 31-47 0-85-55-85-184Zm125-18c26-78 94-124 201-124h184c25 0 45-20 45-45V581l123 116-123 116V677c0-25-20-45-45-45H666c-118 0-201 73-201 254Z"/>
</svg>
